<svg xmlns="http://www.w3.org/2000/svg" viewBox="0 0 64 64" role="img" aria-label="Favicon TTE">
  <defs>
    <linearGradient id="bg" x1="0" y1="0" x2="1" y2="1">
      <stop offset="0%" stop-color="#2563eb"/>
      <stop offset="100%" stop-color="#1e3a8a"/>
    </linearGradient>
  </defs>
  <rect x="4" y="4" width="56" height="56" rx="14" fill="url(#bg)"/>
  <path d="M20 16h16l8 8v24a4 4 0 0 1-4 4H20a4 4 0 0 1-4-4V20a4 4 0 0 1 4-4z" fill="#fff" opacity="0.95"/>
  <path d="M36 16v8h8" fill="none" stroke="#bfdbfe" stroke-width="2"/>
  <path d="M23 31l4 4 8-8" fill="none" stroke="#16a34a" stroke-width="3" stroke-linecap="round" stroke-linejoin="round"/>
  <rect x="22" y="40" width="16" height="9" rx="2" fill="#1e3a8a"/>
  <path d="M25 40v-2a5 5 0 0 1 10 0v2" fill="none" stroke="#1e3a8a" stroke-width="2"/>
</svg>
